<?xml version="1.0" encoding="utf-8"?>
<!-- Generator: Adobe Illustrator 27.3.1, SVG Export Plug-In . SVG Version: 6.00 Build 0)  -->
<svg version="1.1" id="Layer_1" xmlns="http://www.w3.org/2000/svg" xmlns:xlink="http://www.w3.org/1999/xlink" x="0px" y="0px"
	 viewBox="0 0 649.4 450.6" style="enable-background:new 0 0 649.4 450.6;" xml:space="preserve">
<style type="text/css">
	.st0{fill:#00532F;}
	.st1{fill:#FFFFFF;}
</style>
<rect class="st0" width="649.4" height="450.6"/>
<path class="st1" d="M229.5,112.9c2.3,1.6,7.3,10.2,7,12.2c-0.9-0.6-1.7-1.2-2.5-1.8c-0.1,0.1-0.2,0.1-0.4,0.2
	c0.1,0.7,0.1,1.4,0.3,2c1.4,4.7,3.1,9.4,4.2,14.2c1.3,5.4,0,10.7-2.6,15.4c-1.9,3.5-5.3,5-9.6,5.4c0.5,4.7,1,9.3,1.6,14.2
	c0.6-0.2,1-0.3,1.4-0.5c4.3-2,8.7-4.1,13-6.1c0.6-0.3,1.1-0.6,1.7-0.8c0.4-0.2,1.1-0.4,1.3-0.2c0.3,0.2,0.2,0.9,0.2,1.3
	c0,0.5-0.1,1-0.2,1.4c-0.6,3.4,0.8,5.7,4.4,6.7c0.1-0.4,0.2-0.7,0.1-1c-1.1-10.2-2.2-20.5-3.2-30.7c-0.7-7.2-1-14.3-1.6-21.5
	c-0.1-1.4-0.7-2.7-0.9-4.1c-0.1-0.9-0.4-1.9-0.1-2.6c0.6-1.8,1.5-3.6,2.5-5.4c2.9,5.8,6.8,18.2,6.6,18.3c-1.1-1.1-3.6-3.3-3.8-3.3
	c1.3,16.8,3.7,33.4,5,50.4c2.7-0.6,4.5-2.1,5.8-4.1c1.5-2.3,3-4.7,4.5-7c0.2-0.3,0.4-0.6,0.6-0.8c0.3-0.2,0.8-0.3,1.1-0.4
	c0.1,0.4,0.3,0.8,0.2,1.1c-0.2,0.8-0.5,1.7-0.9,2.5c-0.7,1.5-0.2,2.7,1,3.8c2,1.9,6.3,2.5,8.8,1.4c1.2-0.5,1.4-1.2,0.5-2.1
	c-1.3-1.3-1.4-2.7-0.8-4.4c0.7-1.8,1.1-3.7,1.6-5.5c0.2,0,0.3-0.1,0.5-0.1c0.4,0.9,1,1.7,1.3,2.6c1.3,3.2,0.7,6.5,0.1,9.8
	c-0.3,1.7-0.8,3.4-1.6,4.9c-1.3,2.5-3.6,3.4-6.2,3.1c-1.6-0.1-3.2-0.5-4.7-1c-1.7-0.6-3.1-1.8-3.9-3.5c-0.1-0.2-0.2-0.4-0.4-0.6
	c-0.1-0.1-0.3-0.1-0.4-0.2c-0.7,1.2-1.2,2.6-2.1,3.7c-0.9,1.3-2,2.5-3.2,3.5c-0.9,0.7-1.3,1.4-1.1,2.5c0.8,8.1,0.9,16.3-0.1,24.4
	c-0.1,1.2-0.3,2.4-0.6,3.6c-0.1,0.6-0.4,1.2-0.8,1.7c-0.1,0.2-0.6,0.4-0.9,0.3c-0.2-0.1-0.4-0.5-0.4-0.8c-0.1-0.5,0-1,0-1.5
	c0.2-8-0.4-16-1.4-24c-0.1-0.7-0.1-1.4-0.1-2c-0.1-2.1-0.1-2.1-2.2-2.3c-2.9-0.2-5.1-1.6-6.3-4.2c-0.5-1.1-0.6-2.4-0.8-3.6
	c-0.1-0.7,0-1.3,0-2.2c-0.7,0.2-1.3,0.4-1.8,0.6c-3.5,1.7-7,3.4-10.4,5.3c-0.5,0.3-0.8,1.3-0.8,1.9c0.1,4.8-0.2,9.6-1.4,14.3
	c-1.3,4.9-3.8,9-7.8,12.2c-6.8,5.4-13.8,10.6-21.6,14.5c-5.5,2.7-11.3,4.3-17.5,4.7c-9.2,0.6-17.8-4.5-20.9-12.6
	c-1.8-4.7-1.7-9.5-0.8-14.4c0.9-5.1,2.5-10.1,4.6-15.1c-3.6,1.9-11.1,5.4-11.2,5.2c9.7-6.4,19.9-12,28.6-20c-1.2-0.9-2.1-1.5-3-2.2
	c-1.7-1.3-2.2-3.2-1-4.9c1-1.4,2.5-2.7,4-3.7c1.6-1,3.1-0.3,3.4,1.6c0.2,1.8-0.1,3.6-0.3,5.4c-0.1,0.8-0.3,1.3,0.5,1.9
	c2.2,1.5,2.4,2.6,0.9,5.3c-0.7-0.7-1.4-1.3-2.1-1.9c-0.8-0.8-1.4-0.7-2.1,0.1c-1.7,2-3.4,3.8-5.2,5.7c-2.4,2.6-3.7,5.8-4.9,9
	c-1.4,3.8-1.6,7.5-0.3,11.4c1.7,4.8,5.2,7.1,10,7.7c6.4,0.8,12.2-1.2,17.7-4.1c6.4-3.3,12.4-7.4,17.7-12.2c1-0.9,1.1-3.9,0.1-4.7
	c-0.3-0.2-0.9-0.1-1.3,0c-3.3,0.7-6.6,0.8-9.8,0.1c-4.9-1-7.1-4.4-5.7-9.3c1.2-4.4,3.7-7.8,8.1-9.4c2.2-0.8,4.3-0.3,6.2,1.2
	c2.6,2,4.4,4.6,5.5,7.6c0.5,1.3,1.1,1.4,2.2,1.1c2.2-0.7,2.2-0.6,1.9-2.9c-0.4-4.3-0.8-8.7-1.3-13.1c-0.1-0.5-0.4-1.2-0.8-1.4
	c-5.8-2.4-8.3-7.3-10-12.9c-0.2-0.8-0.4-1.6-0.7-2.8c-0.5,2-0.8,3.6-1.3,5.2c-1.5,4.9-4.1,8.9-8.7,11.4c-6.5,3.4-15.7,2-18.3-8.2
	c-1.2-4.8-0.7-9.6,0.3-14.3c0.5-2.6,1.2-5.1,1.8-7.6c0.1-0.5,0.2-1.1,0.2-1.7c-0.1-0.1-0.3-0.1-0.4-0.2c-0.4,0.5-0.9,1-1.1,1.6
	c-2.2,6.1-4.3,12.3-6.5,18.4c-1.3,3.6-2.8,7.2-4.2,10.8c-0.1,0.2-0.2,0.4-0.4,0.6c-2.3,3.7-5.8,4-8.8,0.9c-2.2-2.3-3.5-5.1-4.2-8.2
	c-1.6-6.3-1.4-12.5,0.1-18.8c1.2-4.9,3.5-9,8.2-11.4c0.5-0.2,0.9-0.7,1.4-1.2c-0.5-0.4-0.8-0.8-1.2-1.1c-0.9-0.8-1.1-1.7-0.7-2.8
	c0.4-1.2,0.6-2.4,0.9-3.7c0.4-1.8,1.4-2.3,2.9-1.3c1.6,1.1,3.1,2.2,4.4,3.5c1.2,1.1,1.6,2.6,1.5,4.3c-0.1,1.3-0.8,2-2.1,1.9
	c-0.3,0-0.7,0-1-0.1c-2-1.1-3.3-0.1-4.7,1.3c-1.4,1.4-3.2,2.5-4.8,3.8c-0.6,0.5-1,1.1-1.8,1.8c5,0.7,8.6-1.5,12.2-4.2
	c-0.5,2.8-7.5,7.9-13.4,6.6c-0.9,6.4-1.4,12.7,0.8,18.9c0.5,1.4,1.3,2.7,2.3,3.8c2,2.1,4.9,1.8,6.7-0.6c2.3-3.2,3.4-6.9,4.3-10.7
	c1.3-5.5,2.4-11.1,5.1-16.2c1.2-2.3,2.8-4.3,4.2-6.4c0.3-0.4,0.8-0.8,1.2-1.1c1.3-0.9,2.4-0.4,2.4,1.1c0,2.4-0.3,4.7-0.7,7.1
	c-0.7,4.9-1.6,9.8-2.3,14.7c-0.2,1.5-0.1,3.1,0.2,4.6c0.6,2.8,2.4,4.7,5,5.8c7.2,3.2,16.1-1.2,18.1-8.8c1.4-5.5,1-11-0.1-16.5
	c-0.1-0.5-0.1-1.1-0.3-1.6c-2-4-0.2-7.7,0.8-11.4c0.1-0.3,0.3-0.6,0.7-1.1c0.6,0.8,1,1.5,1.4,2.2c2.5,4.3,3,9.2,3.5,14
	c0.4,4.4,0.7,8.7,1.2,13.1c0.4,3.4,2.3,5.9,5.5,7.9c-0.1-1.1-0.2-1.9-0.3-2.8c-0.7-8.3-1.4-16.6-2.1-24.8c-0.1-0.8-0.2-1.6-0.5-2.2
	c-1.8-3.3,0.7-5.7,1.5-8.6c2,1.8,8.1,16,7.6,18c-1.2-1.1-2.3-2.1-3.3-3.2c-0.1,0.1-0.3,0.2-0.4,0.3c0,1.3-0.1,2.7,0,4
	c0.7,6.7,1.5,13.3,2.2,20c0.1,0.8,0.3,1,1.1,0.9c3.1-0.3,5.8-1.5,8.4-3.1c0.8-0.5,1-1.1,0.7-2.1c-1-2.7-1.8-5.5-2.8-8.3
	c-1.7-4.6-2.8-9.4-3.4-14.3c-0.1-1-0.5-2.1-1.1-3c-0.6-1-0.7-1.9-0.3-3C228.3,116.6,228.8,114.8,229.5,112.9z M170.5,182.3
	c-1.4,0.8-2.5,1.3-3.5,2.1c-0.7,0.5-1.5,1.2-1.9,1.9c-2.7,5.5-4.2,11.3-4.1,17.5c0.1,7.6,4.1,13.3,11.3,15.8
	c5.4,1.9,10.9,1.7,16.3,0.2c7.1-2,13.5-5.3,19.8-9.1c5.4-3.3,10.4-7.2,14.7-11.9c0.5-0.6,1.1-1.4,1.1-2.1c-0.1-4.1-0.4-8.2-0.6-12.2
	c0-0.3-0.3-0.8-0.5-0.9c-1.1-0.4-3.3,1.3-3.4,2.5c-0.4,5.1-2.2,9.7-6.1,13.2c-5.1,4.6-10.7,8.4-16.8,11.5c-5.7,2.9-11.5,4.9-18,4
	c-5.6-0.8-9.6-3.7-11.4-9.1c-2.1-5.9-1-11.8,0.9-17.6C168.8,186.3,169.7,184.5,170.5,182.3z M211.8,178.8c0.1-0.2,0.3-0.5,0.4-0.7
	c-1.1-0.9-2.2-1.9-3.3-2.8c-1.7-1.3-3.3-1.1-4.8,0.3c-1.1,1.1-1.1,2,0.4,2.5C206.8,179.1,209.3,179,211.8,178.8z M181.3,168.4
	c0.2-0.1,0.3-0.1,0.5-0.2c-0.1-1.1-0.1-2.2-0.3-3.3c-0.1-0.3-0.8-0.9-1-0.8c-0.8,0.3-1.5,0.7-2.2,1.2c-0.1,0.1,0.3,1,0.6,1.3
	C179.6,167.2,180.5,167.8,181.3,168.4z M170.9,118c-0.7-0.8-1.2-1.4-1.7-2c-0.6,0.5-1.6,1-1.7,1.6c-0.1,1.1,1.1,1.4,2,1.4
	C169.8,119.1,170.2,118.5,170.9,118z M174.6,120.5c0.1-0.1,0.2-0.2,0.3-0.3c-0.8-1-1.6-2.1-2.6-3.4c-0.4,0.9-0.7,1.4-0.7,1.9
	c0,0.4,0.1,1,0.4,1.1C172.8,120.2,173.7,120.3,174.6,120.5z"/>
<path class="st1" d="M417.6,112c0.7,1.3,6.4,11.2,7.7,18c-0.5-0.2-3.5-2.6-4-3c-0.3-0.3-0.2,1.4-0.2,1.8c0.4,5.2,0.9,10.4,1.4,15.5
	c0.7,7.1,1.4,14.2,1.9,21.3c0.7,9.3,1.6,30.6,1.6,30.9c0,1-0.2,0.3,1.3,1.6c1.4,1.3,2.6,4.3,3.5,6.1c1.3,2.5,3.1,4.3,6,4.9
	c3.3,0.6,6.4,0.3,9.4-1.3c1.7-0.9,3.4-2.1,4.9-3.3c0.5-0.3,0.9-1.1,0.8-1.7c-0.6-7.2-1.2-14.4-1.8-21.6c-0.9-9.7-3.1-33.6-3.4-35.8
	c-0.1-0.7-0.4-1.4-0.8-2c-4.8-6.6-9.5-13.2-14.4-19.8c-0.8-1-1.9-1.7-2.8-2.7c-0.3-0.3-0.8-0.8-0.8-1.2c-0.1-2-0.1-4.4-0.1-6.6
	c0.5,0.2,7.7,5.1,8,5.3c4.3,2.9,7.4,6,7.5,6.3c-0.3,0.1-5.7-1-5.8-0.9c2.5,3.6,5.8,8.2,8.5,11.9c0.2-0.4-0.9-9.4-1.2-13.4
	c0-0.3-0.1-0.6-0.2-0.8c-1.4-2.2-0.6-4.4,0.3-6.5c0.4-0.9,0.8-1.8,1.4-2.8c2.9,5.6,6.1,11,7.7,17.2c0.1,0.5,0.1,0.7,0,0.8
	c-1.1-1-2.9-2.7-4.1-3.8c-0.1,0.7-0.1,1.2-0.1,1.5c0.3,4.4,0.7,8.7,1.1,13.1c0.1,0.7,0.5,1.4,1,1.9c4.4,5.3,13.5,16.1,14,16.4
	c0.1-0.5-1.4-17.6-2.1-25.7c-0.3-3-0.4-6.1-0.7-9.2c-0.2-1.5-0.7-2.9-1-4.3c-0.1-0.3-0.3-0.5-0.3-0.8c0-2.5,1.1-4.7,2.1-7
	c2.3,2.1,8,15.9,7.3,17.5c-1.1-1-2.1-1.9-3.5-3.2c0,2.5,2,25.6,3,35c0.1,0.6,0.1,1.2,0.1,1.7c0,1.7,0.6,3.1,1.8,4.5
	c5.7,6.8,11.2,13.7,15.3,21.6c2.6,4.9,4.1,10.1,3.3,15.7c-0.1,0.5-0.6,2-0.9,2.3c-0.2-0.3-2.6-7.9-4.3-11.2
	c-3.2-6.3-7.3-12-11.7-17.6c-0.8-1.1-1.6-2.1-2.5-3.4c-0.2,0.4,0.2,10.8,0.4,15.8c0.4,8.4,0.3,16.8-1.6,25.1c-0.2,0.8-1.3,2.7-1.6,3
	c-0.2-0.4-0.9-20.7-1.3-28.7c-0.3-6.4-0.7-12.7-1-19.1c-0.1-1.7-0.6-3.1-1.8-4.5c-4-4.6-12.4-14.6-13-14.9c0.1,1,0.2,2,0.3,3
	c1,11.8,2,23.6,2.8,35.4c0.4,5.3-0.1,10.7-1.5,15.9c-1.5,5.7-6.7,10.3-12.6,11c-6.2,0.7-9.5-1.2-12.2-6.9c-0.6-1.3-2.7-5.5-3.3-6
	c-0.4,2.5-0.1,5.8-0.8,7.7c-0.5,2.2-1.8,3-2.2,3.2c-0.1-0.4-0.4-10.6-0.5-11.5c-2.9,1.5-5.2,3.8-6.8,6.3c-1.5,2.5-2.9,5.1-4.3,7.8
	c-1.4,2.8-2.7,5.7-4.1,8.5c-0.6,1.1-1.2,2.2-1.9,3.3c-3.1,4.6-7.4,5-11.2,1c-2.2-2.3-3.8-5-4.7-8.1c-0.2-0.7-0.5-1.3-0.7-2
	c-0.3,0-0.4,0-0.6,0.1c-7.1,3.8-14.6,6.3-22.2,8.6c-1.2,0.4-2.3,0.8-3.5,1.1c-0.5,0.1-1,0-1.6,0c0-0.2-0.1-0.3-0.1-0.5
	c0.6-0.4,1.2-0.8,1.9-1.2c7.7-4.4,15.3-8.8,23-13.2c1.5-0.9,1.8-1.9,1.7-3.7c-0.7-9,1.4-13.1,1.6-13.1c0.1,0.6,0.7,13.3,0.7,13.8
	c3.6-2.8,7.3-5.5,9.3-9.5c0.9-1.8,1.4-4,1.3-6c-0.3-7-0.6-14.1-1.3-21.1c-1.2-10.6-2.8-21.2-4.1-31.8c-0.9-6.9-1.6-13.8-2.4-20.7
	c-0.1-1.2-0.6-2.4-1.1-3.4c-0.5-1.1-0.6-2-0.1-3c0.7-1.6,1.4-3.2,2.1-4.8c1.7,1,8.2,15.7,7.8,18.2c-0.8-0.8-3.1-2.6-3.5-2.9
	c-0.1,0.5,3.3,24.4,4.8,35.9c0.9,7,1.7,14.1,2,21.2c0.3,7.8-1.1,15.4-4.2,22.6c-1.8,4.2-4.3,7.9-7.9,10.9c-0.7,0.6-1,1.1-0.4,1.9
	c1.1,1.4,1.9,3.1,3.2,4.2c3.1,2.7,6.9,2.4,9.3-0.9c2-2.8,3.5-5.9,5.1-8.9c2.4-4.5,4.4-9.2,8-13c1.1-1.2,2.6-2.2,4-3.2
	c0.7-0.5,1-0.3,0.9-1.1c-0.5-6.2-0.8-13-1.3-19.2c-0.4-5.1-0.7-10.2-1.1-15.3c-0.3-4.2-0.8-8.3-1.2-12.5c-0.8-8.6-1.5-17.2-2.3-25.8
	c-0.1-1.1-0.3-2.2-0.8-3.2C413.8,117.5,416.1,113.7,417.6,112z"/>
<path class="st1" d="M342.5,176.4c-0.1-0.3-0.1-0.4-0.1-0.5c-3.4-3.8-2.3-7.9-0.4-11.8c1.2-2.6,3.4-3.4,6.1-2.7c1.5,0.4,3,1,4.3,1.8
	c2.3,1.6,4.4,3.5,6.6,5.3c1.1,0.9,1.3,2.1,1.1,3.4c0,0.2-0.1,0.4-0.1,0.6c-1.1,5.7-1.1,5.7-6.7,7.4c-0.2,0.1-0.4,0.1-0.6,0.2
	c-2.4,0.4-4.6,1.2-4.1,4.4c0.1,0.5-0.3,1-0.8,1.6c-0.3-0.9-0.6-1.9-0.9-2.8c-0.3-0.8-0.8-1-1.7-0.7c-6.5,2.5-12.8,5.5-18.6,9.3
	c-0.4,0.2-0.7,0.5-0.9,1c16.1,0.7,32.1-0.4,48.5-1.8c-0.5,1.4-0.9,2.4-1.2,3.4c-0.6,2.5-2,3.9-4.5,5.1c-7.6,3.6-15.5,6.1-23.4,9
	c-4.2,1.6-8.3,3.5-12.3,5.6c-2.1,1.1-2.1,2-0.3,3.7c2.7,2.6,6.1,3.4,9.5,4c1.2,0.2,1.6,0.7,1.7,1.8c0.1,1.7,0.2,3.4,0.4,5.1
	c0.1,1.3-0.4,1.8-1.7,1.8c-7.1-0.2-13.6-2.2-19.4-6.3c-6.8-4.9-11-11.4-12-19.8c-0.1-1.2-0.4-2.4-0.8-3.7c-0.1,0.9-0.3,1.9-0.4,2.8
	c-0.6,3.7-2.5,6.6-5.1,9.1c-6.7,6.6-14.2,12.1-22.6,16.4c-2.9,1.5-6,2.4-9.4,2.3c-4.6-0.1-7.9-3.1-8.1-7.8c-0.1-1.1-0.2-2.2-0.3-3.5
	c-0.5,0.2-0.9,0.2-1.2,0.4c-7.2,3.6-14.9,5.4-22.9,6.5c-6.6,0.9-13.1,2.1-19.7,3.3c-0.7,0.1-1.4,1.1-2,1.7c-0.7,0.8-1.2,1.8-2.1,2.4
	c-1.3,0.9-2.5,0.5-3.5-1c-1.6-2.3-1.5-4.9-0.7-7.3c1.2-3.6,2.7-7,4.1-10.5c0.3-0.8,0.8-1.6,1.2-2.4c0.2,0.1,0.1,2.4-0.3,3.5
	c-0.9,2.7-2,5.3-2.8,8c-0.5,1.5-0.1,3,1,4.2c1.3,1.5,2,1.4,2.9-0.4c0.2-0.3,0.9-1.5,1.4-2c0,1.1,0,1.7,0,2.5c0.5,0,0.9,0,1.2-0.1
	c10.8-3.9,21.7-7.7,32.5-11.6c3.8-1.4,7.5-3.2,11.2-4.9c0.5-0.2,1-0.7,1.2-1.2c0.9-2.1,1.7-4.2,2.5-6.3c0.3-0.7,0.4-1.2-0.6-1.6
	c-1.4-0.5-2-1.8-2.2-3.2c-0.4-2.4-0.2-4.9,0.8-7.2c1.3-3.1,2.6-6.2,4-9.2c0.2-0.5,0.5-0.9,0.8-1.3c0.2,0.1,0.3,0.1,0.5,0.2
	c-0.2,0.9-0.3,1.8-0.6,2.7c-0.8,2.2-1.8,4.4-2.5,6.7c-0.7,2.1-0.8,4.2,0.7,6.1c1,1.2,1.9,1,2.5-0.3c0.4-0.7,0.7-1.4,1.1-2.1
	c0.2,0,0.3,0,0.5,0.1c0,0.5,0.3,1.1,0.1,1.5c-0.6,1.6-1.3,3.2-2,4.8c-1.1,2.4-2.2,4.9-3.2,7.3c-0.2,0.4-0.2,0.9-0.4,1.8
	c5.8-3.2,11.4-6.2,16.7-9.3c3.1-1.8,6.1-4,9-6.1c1.9-1.4,1.8-1.6,0.8-3.7c-1.1-2.2-2.3-4.3-3.4-6.5c-1.6-3.3-3.1-6.7-4.7-10
	c-0.5-1-1.1-2-1.6-3.1c-0.2-0.4-0.5-0.9-0.4-1.3c0.4-2.2,0.8-4.4,1.3-6.5c2.1,0.5,9.3,7.7,9.1,9.3c-1.1-0.2-2.1-0.5-3.6-0.8
	c0.3,0.9,0.4,1.5,0.7,2c1.4,2.7,3,5.4,4.4,8.1c2.9,5.7,2.5,11.3-0.6,16.7c-0.9,1.6-2.5,2.9-4.1,4.1c-7.2,5.4-15,9.8-23,13.7
	c-2.1,1-2.2,1.3-0.8,3.2c1.9,2.6,4.7,2.8,7.5,2.4c5.9-0.7,10.9-3.6,15.7-6.9c5.2-3.5,10.1-7.4,14.5-11.9c0.1-0.1,0.2-0.2,0.3-0.3
	c2.5-2.3,3.6-4.9,2.3-8.4c-3-8.1-5.4-16.3-8.6-24.3c-1.6-3.9-1.2-7.5-0.4-11.4c0-0.2,0.2-0.3,0.4-0.7c0.5,0.6,1,1.1,1.4,1.7
	c5,7.2,8,15.2,9.9,23.6c1,4.8,1.6,9.7,2.3,14.5c1.1,8.2,5.4,14.2,12.2,18.6c0.9,0.6,1.9,1,3.1,1.6c0.1-1,0.1-1.7,0.1-2.3
	c0.3-5.2,2.5-9.1,7.3-11.4c3.4-1.6,6.9-3,10.4-4.5c0.4-0.2,0.8-0.4,1.6-0.7c-11.6,0.2-22.8,0.5-33.9,0.7c0.3-5.4,2.4-9.5,6.7-12.5
	c6.1-4.3,12.5-7.9,19.2-11C340.8,177.3,341.7,176.8,342.5,176.4z M352.6,172.8c0-0.2,0-0.3,0-0.5c-2-1.5-4-3-6.6-3.3
	c-0.7-0.1-1.6,0.1-2.3,0.3c-1.3,0.4-1.5,1.1-0.6,2.2c0.4,0.5,0.8,1,1.1,1.5c1.6,2.1,1.6,2.1,4.1,1.2
	C349.8,173.7,351.2,173.3,352.6,172.8z"/>
<path class="st1" d="M195.2,323.8c0.9-0.1,1.5-0.3,2.1-0.3c67.3,0,134.7,0,202,0c3,0,5.9,0,8.9,0.1c1.3,0,1.9-0.5,1.9-1.8
	c-0.1-1-0.1-2-0.2-3c-0.1-1.5,0.2-2.8,1.6-3.6c1.7-1,3.4-1,5,0.1c1.3,0.9,1.7,2.3,1.3,3.7c-0.3,1.2-1.1,2.3-1.7,3.4
	c-0.2,0.3-0.5,0.6-0.9,1.1c0.7,0,1.2,0.1,1.7,0.1c8.8,0,17.7,0,26.5,0c3.4,0,6.3,1.1,8.6,3.7c2,2.3,2.4,5,1.8,7.8
	c-0.4,2-2,3.1-3.8,3.4c-3.2,0.4-6.3-0.1-9.2-1.6c-1-0.5-2.2-0.6-3.3-0.7c-2.5-0.1-5-0.1-7.4-0.1c-1.1,0-2,0.1-2.9,1
	c-1.3,1.4-2.6,1.2-4.1,0c-0.7-0.6-1.8-0.9-2.7-1c-2.6-0.1-5.2,0-7.9,0c-1,0-1.4,0.2-1.5,1.2c-0.3,2-2.2,3.2-4.5,2.9
	c-2.3-0.3-3.4-1.5-3.4-3.7c0-2.2,1.2-3.6,2.6-5.1c-0.4-0.1-0.6-0.2-0.9-0.2c-32.7,0-65.3,0.1-98,0.1c-31.8,0-63.6,0-95.4,0.1
	c-6.2,0-11.4-1.9-15.6-6.5C195.7,324.5,195.6,324.4,195.2,323.8z M437.7,334.7c-1.4-3.2-2.2-3.7-5.4-3.7c-6.3,0-12.6,0.1-18.9,0
	c-2.3-0.1-2.3,0.4-2.4,2.5c0,1.2,0.4,1.5,1.6,1.4c2.7-0.1,5.3-0.2,8-0.1c1.2,0,2.2-0.1,3-1c0.9-0.9,2.3-1.1,3.2-0.2
	c1.2,1.2,2.5,1.2,4,1.1C433,334.7,435.3,334.7,437.7,334.7z"/>
<path class="st1" d="M307.7,141.5c-0.3,1-0.5,2-0.8,3c-1.2,4.7-3.1,9-7.2,12c-4.9,3.7-11.7,3.9-16,0.3c-2.9-2.4-3.9-5.8-4.3-9.4
	c-0.7-5.6,0.3-10.9,1.9-16.2c0.4-1.2,0.6-3.9,0.4-4c-0.6,1-1.3,1.8-1.7,2.9c-2.2,6.1-4.2,12.2-6.5,18.2c-1.2,3.1-2.4,6.3-4,9.2
	c-1.9,3.6-5.3,4-8.3,1.3c-2.9-2.6-4.2-6.2-5-9.9c-1.1-5.2-0.9-10.4,0-15.6c0.1-0.8,0.5-1.6,0.9-2.7c-1.4,0.7-3.9,1.6-3.9,1.4
	c5.3-3.9,11.2-7.2,16.1-12.1c-0.7-0.3-1.2-0.5-1.7-0.7c-0.9-0.4-1.5-1.2-1.1-2.1c0.8-2,1.8-4,2.8-6.2c2.5,2,4.7,4.1,5.5,7.3
	c0.1,0.4,0,1-0.1,1.4c-0.4,1.8-1.2,2.3-2.7,1.4c-1.4-0.8-1.9-0.2-2.9,0.7c-3.1,2.6-6.3,5-9.5,7.4c-0.9,0.7-1.7,1-1.6,2.5
	c0.2,1.9-0.3,3.8-0.4,5.8c-0.1,3.7,0.4,7.3,1.8,10.7c0.5,1.3,1.3,2.5,2.2,3.5c2,2.1,4.8,2,6.4-0.4c1.4-2.1,2.5-4.4,3.3-6.7
	c1.7-5.1,3-10.3,4.7-15.4c1.2-3.7,6.4-10.8,6.8-11c0.5-0.3,1.3-0.6,1.7-0.4c0.5,0.3,0.8,1,0.9,1.6c0.4,3.8-0.7,7.4-1.6,11
	c-0.9,3.9-1.6,7.8-1.3,11.8c0.3,4.8,3.8,8.1,8.6,8.5c8.2,0.6,14.6-5.2,15.1-13.4c0.4-5.8-0.2-11.5-1.9-17.1
	c-0.2-0.8-0.3-1.8-0.1-2.6c0.5-2.1,1.1-4.1,1.7-6.2c0.1-0.3,0.3-0.5,0.5-0.9c0.3,0.4,0.6,0.6,0.8,0.9c2.1,3.4,3.3,7,3.7,10.9
	c0.5,5.3,1,10.6,1.5,16c0.9,9.8,10.9,13.6,19,8.9c1-0.6,0.9-1.4,0.6-2.3c-1.1-3.7-2.4-7.3-3.4-11c-1-3.7-1.7-7.5-2.6-11.2
	c-0.2-1-0.4-2.2-1-3c-0.8-1.1-0.8-2.1-0.4-3.2c0.6-1.8,1.2-3.6,1.8-5.5c0.3,0.2,4.7,6.3,6.6,9.3c0.5,0.8,1.1,1.7,0.2,2.8
	c-0.8-0.6-2.6-1.5-2.7-1.5c0.1,0.5,3.1,10.4,4.5,14.9c1.8,6.1,0.2,11.8-2.7,17.1c-2,3.5-6.7,4.9-11.4,4c-6.5-1.3-9.7-5.8-11.8-11.5
	c-0.5-1.4-0.8-2.9-1.2-4.3C307.9,141.6,307.8,141.6,307.7,141.5z M271,117c-0.6-0.8-1-1.4-1.4-2c-0.6,0.5-1.2,1-1.8,1.5
	c0.7,0.5,1.4,1,2.2,1.3C270.1,117.9,270.5,117.4,271,117z M271.8,116c-0.8,2.3-0.1,3.3,2.1,3.1C273.2,118,272.6,117.1,271.8,116z"/>
<path class="st1" d="M397.7,203c-0.2-0.7-0.4-8.7-6-14.8c-4.3-5.5-13.7-16.4-14.1-16.6c0.2,2,0.5,3.7,0.6,5.5
	c1,10.7,2.7,21.4,1.6,32.3c-0.2,1.9-0.6,3.8-1,5.7c-0.2,0.7-0.6,1.3-0.9,2c-0.2,0-0.3-0.1-0.5-0.1c-0.1-0.5-0.4-0.9-0.4-1.4
	c0.1-7.3-0.6-14.4-1.5-21.6c-1.1-8.8-1.9-17.6-3-26.4c-0.1-1.1-0.9-2.3-1.7-3.1c-5.2-5.4-10.7-10.5-15.7-16.1
	c-5.3-5.9-10.2-12.1-15.3-18.2c-1-1.2-2.2-2.3-3.3-3.4c-0.3-0.3-0.8-0.6-0.8-1c-0.1-2,0-6.3,0.2-6.8c4.9,3.8,10.5,6.5,15,10.7
	c-0.1,0.2-5,0.3-5,0.4c7.6,9.5,16.2,17.9,25.3,26.5c-0.3-2.3-3.6-31.1-3.9-33.8c-0.1-0.5-0.1-1.1-0.4-1.5c-1.2-1.8-0.7-3.5,0.1-5.2
	c0.6-1.2,1.1-2.5,1.7-3.9c0.3,0.3,6.6,12.2,7.3,17.8c-0.4-0.3-2.1-2.2-4.1-3.1c0.4,3.3,3.2,25.2,4.3,33.1c0.2,1.1,0.7,2.2,1.4,3.1
	c5.1,6,10.3,11.9,15.3,18c4.6,5.6,6.1,10.3,5.9,17.3C398.8,199.3,397.9,203,397.7,203z"/>
<path class="st1" d="M492.2,126.5c0.1,1.3,0.2,2.6,0.3,3.8c1,9.6,2.1,19.1,3.1,28.7c1.1,10.5,2.5,20.9,2.1,31.5
	c-0.3,8-2,15.5-6.1,22.5c-3.2,5.5-7.7,9.3-13.6,11.2c-19,5.7-22.6,5.7-22.7,5.5c0.5-0.4,13-7,18.7-9.9c5.1-2.6,10.1-5.5,14.5-9.2
	c3.1-2.5,4.6-5.7,4.7-9.7c0.2-8.4-0.3-16.7-1.1-25c-0.9-8.9-1.9-17.9-2.7-26.8c-0.7-7.7-1.4-15.4-2-23.1c-0.2-2.4-0.1-4.8-1.5-6.9
	c-0.2-0.3-0.2-0.7-0.1-1c0.8-2.1,1.7-4.1,2.7-6.5c0.4,0.7,0.7,1,0.9,1.4c1.8,3.6,3.7,7.3,5.4,11c0.5,1.1,0.9,2.3,1.3,3.5
	c0.1,0.4,0.2,1.5,0.1,1.9c-0.4-0.2-1.1-0.9-1.5-1.1c-0.8-0.7-2-1.9-2.8-2.6C492.1,125.9,492.3,126.3,492.2,126.5z"/>
<path class="st1" d="M327.7,174c-0.3-0.7-0.5-1.3-0.8-1.9c-1.1-2-2-4.1-1.7-6.5c0.1-0.6,0.4-1.1,0.7-1.6c0.4,0.4,0.7,0.8,1.1,1.1
	c0.2,0.2,0.3,0.5,0.5,0.7c5-4.6,9.9-9.2,14.8-13.8c0.1-0.2,0.2-0.4,0.3-0.6c-0.4-0.2-0.9-0.4-1.3-0.6c-2.8-1.9-2.6-4.3-0.8-6.6
	c0.7-1,1.8-1.8,2.8-2.4c1.4-0.8,3,0.1,3,1.7c0,1.6-0.3,3.3-0.7,4.8c-0.2,0.8-0.2,1.4,0.6,1.8c0.1,0.1,0.2,0.2,0.4,0.3
	c2.9,2.1,2.9,2.1,2,5.8c-1.2-1-2.4-1.9-3.5-2.8c-1.5-1.1-1.5-1.1-2.6,0.4c-2.9,3.8-6.5,6.9-10.4,9.8c-1.3,1-2.7,1.7-3.9,2.8
	c-0.3,0.3-0.4,1.1-0.3,1.6c0.4,1.5,1,2.9,1.4,4.4c0.5,1.8-0.1,3.4-1.2,4.7c-1.2,1.4-3.7,1.3-5-0.3c-0.3-0.4-0.6-0.8-1-1.3
	c-0.6,0.9-1,1.8-1.6,2.5c-0.8,1.2-2.1,1.6-3.5,1.4c-1.4-0.2-2.3-1.3-2.4-2.6c-0.3-2.9-0.5-5.8-0.6-8.7c0-0.4,0.3-0.9,0.5-1.3
	c0.2,0,0.3,0,0.5,0c0.2,0.8,0.4,1.7,0.5,2.5c0.1,1.3,0.1,2.7,0.3,4.1c0.2,1.7,1.1,2.6,2.4,2.6c1.2,0,2.7-1.3,2.7-2.8
	c0-1.6-0.4-3.3-0.6-4.9c-0.2-1.2-0.5-2.5,0.7-3.9c0.4,0.7,0.9,1.1,1,1.7c0.5,1.7,0.8,3.4,1.2,5.1C323.4,173.4,325.1,174.5,327.7,174
	z M344.2,148.9c0.1-1.5,0.3-2.5,0.2-3.5c-0.1-0.5-0.8-1.2-1.2-1.2c-0.7,0.1-1.4,0.5-2,1c-0.2,0.2-0.2,0.9,0,1.1
	C342,147.2,342.9,147.8,344.2,148.9z"/>
<path class="st1" d="M184.9,200.9c-0.4-0.8-0.8-1.4-1-2c-0.8-2.3-1.6-4.7-2.4-7c-0.3-1-0.9-1.3-2-1.4c-1.3-0.1-2.5-0.8-3.8-1.3
	c-0.2-0.1-0.5-0.5-0.5-0.7c0.4-1.5,0.9-3,1.5-4.5c0.1-0.2,1.3-0.2,1.8,0c3.1,1.8,4.8,4.7,5.8,8c0.2,0.8,0.5,1.6,0.7,2.4
	c0.2,0,0.3,0,0.5,0c0.2-1.4,0.3-2.7,0.5-4.1c0.4-2.2,1-4.3,1.4-6.5c0.1-0.3,0.2-0.6,0.3-0.8c0.8-1.8,1.9-2.7,2.9-2.3
	c1.5,0.5,2.9,2.5,2.7,4.1c-0.1,0.8-0.4,1.5-0.7,2.6c-0.7-0.8-1.1-1.2-1.5-1.7c-1.1-1.3-2-1.3-2.7,0.3c-0.6,1.4-0.8,2.9-1.1,4.3
	c-0.6,3.1-1.2,6.2-1.8,9.3C185.4,200.1,185.2,200.3,184.9,200.9z"/>
<path class="st1" d="M346.4,122.8c2.7-1.5,5.4-3.1,8.1-4.6c0-0.1-6.2-0.4-9.2-0.4c-0.1-2.9,2.7-6.3,5.4-6.3c2.8,0.1,5.5,0.3,8.3,0.5
	c1.1,0.1,1.6,0.7,0.9,1.8C355,123.7,346.4,122.9,346.4,122.8z"/>
<path class="st1" d="M160.3,178.8c2.6-1.5,5.3-3.1,7.9-4.6c0-0.1-0.1-0.3-0.1-0.4c-3.1,0-6.1,0-9.2,0c0.3-3.5,2.9-6.3,6.1-6.3
	c2.6,0,5.2,0.3,7.8,0.5c1,0.1,1.2,0.7,0.8,1.4c-2.2,3.9-4.3,7.9-9.2,9.1C163.2,178.9,160.4,179,160.3,178.8z"/>
<path class="st1" d="M428,227.8c-3.7,2.1-7.3,4.4-10.9,6.5c-0.4-1.6,0.8-3.6,3.4-4.9c-0.6-0.5-1.2-0.9-1.7-1.3
	c-2.6-1.7-2.9-2.7-1.2-5.2c1.7-2.5,3.5-4.8,6.1-6.3c1.2-0.7,1.8-0.3,2.3,0.8c0.9,1.9,0.2,4.3-1.5,5.2c-0.1-0.2-0.2-0.4-0.3-0.6
	c-0.6-2.2-1-2.3-3-1.1c-0.4,0.2-0.7,0.5-1,0.8c-1.1,1.1-1.1,1.8,0.1,2.7c2.6,2.1,4.8,2.1,7.6,0.3c1.1-0.7,2.2-1.4,3.3-2.2
	C431.2,222.7,430,226.7,428,227.8z"/>
<path class="st1" d="M451.4,226.9c0.2-1.6,0.2-1.6,3.5-5.1c-0.5-0.4-1.1-0.8-1.6-1.1c-2.5-1.5-2.9-2.8-1.2-5.1
	c1.7-2.2,3.6-4.2,5.6-6c1.5-1.3,2.8-0.6,3,1.5c0.1,1.6,0,3.1-1.6,4.4c-0.2-0.6-0.5-1-0.6-1.5c-0.3-1.2-1-1.5-2-0.8
	c-0.1,0.1-0.3,0.1-0.4,0.2c-0.8,0.8-1.6,1.6-2.4,2.4c0.9,0.8,1.8,1.8,2.8,2.3c2.7,1.4,4.9-0.1,7.1-1.5c0.7-0.4,1.4-0.8,2.2-1.1
	c-0.2,1.5-0.5,3.1-1.7,3.8c-4,2.6-8.1,5-12.2,7.4C451.8,226.9,451.7,226.9,451.4,226.9z"/>
<path class="st1" d="M360.1,218.5c-0.2,0.5-0.4,1.2-0.8,1.8c-1.1,1.7-2.1,3.6-3.5,4.9c-5.2,4.8-11.5,7.7-18.2,9.9
	c-0.2,0.1-0.5,0.1-0.7,0.1c-0.1,0-0.1-0.1-0.4-0.3c1.2-0.7,2.4-1.5,3.6-2.1c5.3-2.9,10.6-5.8,15.3-9.8c1.9-1.6,3.3-3.3,4-5.7
	c0.5-1.6,1.7-3,2.7-4.4c0.6-0.8,1.4-0.8,2.2-0.2c1.8,1.3,2.6,3.2,2.8,5.4c0.1,1.6-1.1,2.5-2.6,2.1C363,219.6,361.7,219,360.1,218.5z
	 M364.7,217.1c0.1-0.2,0.2-0.4,0.3-0.6c-0.7-0.6-1.4-1.2-2.2-1.6c-0.2-0.1-0.8,0.4-1.2,0.6c0.2,0.4,0.4,0.9,0.7,1
	C363.1,216.9,363.9,216.9,364.7,217.1z"/>
<path class="st1" d="M196.2,139.7c0.2-0.8,0.3-1.4,0.5-1.9c2.8-7.4,1-14.2-5-19.3c-0.3-0.3-0.7-0.8-0.6-1.2c0.3-1.4,0.7-2.8,1.1-4.5
	c4.3,3.2,7,7,7.7,12.1C200.8,130.3,199,138,196.2,139.7z"/>
<path class="st1" d="M296.3,137.3c0.1-0.6-0.6-14.7-6.1-19.3c-1-0.8-1.3-1.5-1.1-2.7c0.2-1,0.3-2,0.5-3.1c5.1,3.1,6.7,7.6,7.5,13.2
	C297.6,129.4,297.2,135.6,296.3,137.3z"/>
<path class="st1" d="M440,194.1c0.1-0.6-0.6-14.7-6.1-19.3c-1-0.8-1.3-1.5-1.1-2.7c0.2-1,0.3-2,0.5-3.1c5.1,3.1,6.7,7.6,7.5,13.2
	C441.3,186.2,440.9,192.4,440,194.1z"/>
<path class="st1" d="M481.7,164.6c0.1-0.6-0.6-14.7-6.1-19.3c-1-0.8-1.3-1.5-1.1-2.7c0.2-1,0.3-2,0.5-3.1c5.1,3.1,6.7,7.6,7.5,13.2
	C483,156.8,482.6,163,481.7,164.6z"/>
<path class="st1" d="M471,122.6c2.4-1.6,5.5-3.7,7.9-5.3c0.2-0.2,0.4-0.3,0.4-0.5c-2.6,0.2-5.7,0.3-8.3,0.5c0-2.5,1.8-4.7,4.1-4.8
	c2.1-0.1,4.2-0.1,6.3,0c1.1,0,1.7,0.6,1,1.7c-1.3,2-2.5,4.2-4,6c-1.6,1.8-4.1,2.1-6.3,2.5C471.7,122.5,471.1,122.7,471,122.6z"/>
<path class="st1" d="M382.9,117.1c-2.4,0-4.8,0-7.6,0c0.9-1.6,1.7-2.9,2.5-4.1c0.2-0.4,0.8-0.7,1.2-0.7c2.6,0,5.1,0,7.7,0.2
	c0.9,0.1,1.4,0.6,0.8,1.6c-5.6,8.3-10.8,7.4-10.9,7.2C378.8,120.1,382.9,117.3,382.9,117.1z"/>
<path class="st1" d="M400.5,116.8c0.7-3.5,2.2-4.9,5.5-5c1.5,0,3,0.1,4.5,0.2c1.4,0.1,1.8,0.7,1.1,1.9c-1,1.7-1.9,3.5-3.2,5
	c-1.7,2-6.8,2.1-6.9,1.9c2.1-1.2,4.2-2.5,6.2-3.7C407.8,117,402.9,116.8,400.5,116.8z"/>
<path class="st1" d="M386.5,143.6c-0.2,1.2-3.7,14.1-1.5,15.6c2.7,1.8,3.8-3.1,4.1-4c0.9,2.4-0.4,6.7-2.1,7.9
	c-1.2,0.9-2.7,0.6-3.7-0.7c-1.1-1.5-1.6-3.3-1.4-5.2C382.3,152.7,386.3,143.6,386.5,143.6z"/>
<path class="st1" d="M435.7,137.3c-0.2,1.5-3.7,17.8-1.5,19.7c2.7,2.3,3.8-3.9,4.1-5c0.9,3.1-0.4,8.4-2.1,10
	c-1.2,1.1-2.7,0.8-3.7-0.9c-1.1-1.9-1.6-4.2-1.4-6.6C431.5,148.7,435.5,137.2,435.7,137.3z"/>
<path class="st1" d="M365.9,166.7c-0.2,1.2-3.7,14.1-1.5,15.6c2.7,1.8,3.8-3.1,4.1-4c0.9,2.4-0.4,6.7-2.1,7.9
	c-1.2,0.9-2.7,0.6-3.7-0.7c-1.1-1.5-1.6-3.3-1.4-5.2C361.8,175.7,365.8,166.6,365.9,166.7z"/>
<path class="st1" d="M308.3,211c-0.2,1.2-3.7,14.1-1.5,15.6c2.7,1.8,3.8-3.1,4.1-4c0.9,2.4-0.4,6.7-2.1,7.9
	c-1.2,0.9-2.7,0.6-3.7-0.7c-1.1-1.5-1.6-3.3-1.4-5.2C304.1,220,308.1,210.9,308.3,211z"/>
<path class="st1" d="M416,185.5c0.6,2.6-0.9,6.7-2.7,7.8c-1.1,0.7-2.4,0.4-3.4-0.7c-1.3-1.5-1.5-3.4-1.3-5.2c0.5-5,4.9-14,5.4-14
	c-0.2,1-0.4,2-0.7,3c-0.7,2.6-1.6,5.2-2.3,7.8c-0.4,1.6,0,3.1,1.3,4.2c1,0.9,1.6,0.8,2.3-0.4C415.2,187.3,415.5,186.6,416,185.5z"/>
<path class="st1" d="M411.2,137.2c-0.4,1.5-0.8,3-1.3,4.5c-0.6,1.9-1.5,4.4-1.7,6.3c-1,8.6,4.3,2.1,4.6,1.3c0.2,0.1,0.4,4.3-1.6,6.7
	c-1.2,1.9-3.1,1.7-4.4-0.1c-1.4-2.1-1.5-4.5-0.8-6.7C406.9,143.6,411.1,137.2,411.2,137.2z"/>
<path class="st1" d="M238.6,186.9c-0.6,2.1-1.2,4.2-1.8,6.3c-0.8,2.6-2.1,6.1-2.4,8.8c-1.4,12.1,5.9,3,6.5,1.9
	c0.3,0.1,0.5,6.1-2.2,9.3c-1.6,2.6-4.3,2.4-6.1-0.2c-2-2.9-2.1-6.3-1.1-9.4C232.6,195.7,238.4,186.8,238.6,186.9z"/>
<path class="st1" d="M383.6,131c0.3,1.1,0.2,3.4,0.6,4.5c0.4,1,1.9,0.9,2.1,0.5c1-1.4-0.8-5.6-0.6-5.8c0.1-0.1,2.8,4.2,2.3,6.5
	c-0.6,2.5-1.9,2.9-4,1.4c-0.2-0.1-0.4-0.3-0.7-0.5c-0.5,0.6-0.9,1.1-1.4,1.7c-0.7,0.9-1.5,0.9-2.4,0.4c-1.5-1-2-6.3-0.5-8
	c0.1,0.8,0.4,4.1,0.7,5.1c0.4,1.2,1.3,1.3,2.1,0.4c0.4-0.5,0.7-1.4,0.7-2.1c0-0.9-0.2-4-0.1-4.7C382.6,130.3,383.4,130.4,383.6,131z
	"/>
<path class="st1" d="M318.7,116.8c0.3,1.1,0.2,3.4,0.6,4.5c0.4,1,1.9,0.9,2.1,0.5c1-1.4-0.8-5.6-0.6-5.8c0.1-0.1,2.8,4.2,2.3,6.5
	c-0.6,2.5-1.9,2.9-4,1.4c-0.2-0.1-0.4-0.3-0.7-0.5c-0.5,0.6-0.9,1.1-1.4,1.7c-0.7,0.9-1.5,0.9-2.4,0.4c-1.5-1-2-6.3-0.5-8
	c0.1,0.8,0.4,4.1,0.7,5.1c0.4,1.2,1.3,1.3,2.1,0.4c0.4-0.5,0.7-1.4,0.7-2.1c0-0.9-0.2-4-0.1-4.7
	C317.6,116.1,318.5,116.2,318.7,116.8z"/>
</svg>
